{
  "accessors": [
    {
      "bufferView": 2,
      "componentType": 5126,
      "count": 55668,
      "max": [
        14.508756637573242,
        -2.5493865013122559,
        12.696937561035156
      ],
      "min": [
        -16.276615142822266,
        -46.196903228759766,
        -14.375526428222656
      ],
      "type": "VEC3"
    },
    {
      "bufferView": 2,
      "byteOffset": 668016,
      "componentType": 5126,
      "count": 55668,
      "max": [
        0.9999927282333374,
        0.9999997615814209,
        0.99997860193252563
      ],
      "min": [
        -0.9999811053276062,
        -0.99999994039535522,
        -0.99998646974563599
      ],
      "type": "VEC3"
    },
    {
      "bufferView": 3,
      "componentType": 5126,
      "count": 55668,
      "max": [
        1,
        1,
        0.9948839545249939,
        -1
      ],
      "min": [
        -1,
        -1,
        -0.99536538124084473,
        -1
      ],
      "type": "VEC4"
    },
    {
      "bufferView": 1,
      "componentType": 5126,
      "count": 55668,
      "max": [
        0.99969100952148438,
        0.9938960075378418
      ],
      "min": [
        0.00024399999529123306,
        0.0002460000105202198
      ],
      "type": "VEC2"
    },
    {
      "bufferView": 0,
      "componentType": 5125,
      "count": 239946,
      "max": [
        55667
      ],
      "min": [
        0
      ],
      "type": "SCALAR"
    }
  ],
  "asset": {
    "extras": {
      "author": "Rigsters (https://sketchfab.com/rigsters)",
      "license": "CC-BY-4.0 (http://creativecommons.org/licenses/by/4.0/)",
      "source": "https://sketchfab.com/3d-models/hans-christian-andersen-74f1cba24216401b9d843111ebae3737",
      "title": "Hans Christian Andersen"
    },
    "generator": "Sketchfab-8.14.0",
    "version": "2.0"
  },
  "bufferViews": [
    {
      "buffer": 0,
      "byteLength": 959784,
      "byteOffset": 0,
      "name": "floatBufferViews",
      "target": 34963
    },
    {
      "buffer": 0,
      "byteLength": 445344,
      "byteOffset": 959784,
      "byteStride": 8,
      "name": "floatBufferViews",
      "target": 34962
    },
    {
      "buffer": 0,
      "byteLength": 1336032,
      "byteOffset": 1405128,
      "byteStride": 12,
      "name": "floatBufferViews",
      "target": 34962
    },
    {
      "buffer": 0,
      "byteLength": 890688,
      "byteOffset": 2741160,
      "byteStride": 16,
      "name": "floatBufferViews",
      "target": 34962
    }
  ],
  "buffers": [
    {
      "byteLength": 3631848,
      "uri": "scene.bin"
    }
  ],
  "images": [
    {
      "uri": "textures/hans_low80-tex_baseColor.jpeg"
    },
    {
      "uri": "textures/hans_low80-tex_metallicRoughness.png"
    },
    {
      "uri": "textures/hans_low80-tex_normal.jpeg"
    }
  ],
  "materials": [
    {
      "doubleSided": true,
      "name": "hans_low80-tex",
      "normalTexture": {
        "index": 2,
        "scale": 1,
        "texCoord": 0
      },
      "pbrMetallicRoughness": {
        "baseColorFactor": [
          1,
          1,
          1,
          1
        ],
        "baseColorTexture": {
          "index": 0,
          "texCoord": 0
        },
        "metallicFactor": 0.55000000000000004,
        "metallicRoughnessTexture": {
          "index": 1,
          "texCoord": 0
        },
        "roughnessFactor": 1
      }
    }
  ],
  "meshes": [
    {
      "primitives": [
        {
          "attributes": {
            "NORMAL": 1,
            "POSITION": 0,
            "TANGENT": 2,
            "TEXCOORD_0": 3
          },
          "indices": 4,
          "material": 0,
          "mode": 4
        }
      ]
    }
  ],
  "nodes": [
    {
      "children": [
        1
      ],
      "name": "RootNode (gltf orientation matrix)",
      "rotation": [
        -0.70710678118654746,
        -0,
        -0,
        0.70710678118654757
      ]
    },
    {
      "children": [
        2
      ],
      "matrix": [
        1,
        0,
        0,
        0,
        0,
        0,
        -1,
        0,
        0,
        1,
        0,
        0,
        0,
        -23.540510177612305,
        -25.222530364990234,
        1
      ],
      "name": "RootNode (model correction matrix)"
    },
    {
      "children": [
        3
      ],
      "name": "HansChristianAndersen-80k.obj.cleaner.materialmerger.gles"
    },
    {
      "mesh": 0,
      "name": ""
    }
  ],
  "samplers": [
    {
      "magFilter": 9729,
      "minFilter": 9987,
      "wrapS": 10497,
      "wrapT": 10497
    }
  ],
  "scene": 0,
  "scenes": [
    {
      "name": "OSG_Scene",
      "nodes": [
        0
      ]
    }
  ],
  "textures": [
    {
      "sampler": 0,
      "source": 0
    },
    {
      "sampler": 0,
      "source": 1
    },
    {
      "sampler": 0,
      "source": 2
    }
  ]
}

